<svg id="Layer_1" enable-background="new 0 0 128 128" height="512" viewBox="0 0 128 128" width="512" xmlns="http://www.w3.org/2000/svg"><path d="m31.6 22.5c1.5 0 2.7 1.2 2.7 2.7v59.5h-5.4v-59.5c0-1.5 1.2-2.7 2.7-2.7z" fill="#5a5a5a"/><path d="m96.4 22.5c1.5 0 2.7 1.2 2.7 2.7v59.5h-5.4v-59.5c0-1.5 1.2-2.7 2.7-2.7z" fill="#5a5a5a"/><path d="m22.5 27.2h83v23.4h-83z" fill="#e43c53"/><path d="m64 27.2h41.5v23.4h-41.5z" fill="#ca3046"/><path d="m115.4 82.7h-11.5s-16.5-9.6-42.4-7.3l-13 5.6s-24.7-1-34.8 6.5l-3.7 8.1c2.8 1.2 5.8 2.1 8.8 2.6h12.3s.1-.6.1-2.2c0-5.3 4.3-9.7 9.6-9.7s9.7 4.3 9.7 9.7v2.2h37.4s0-.6 0-2.2c0-5.3 4.3-9.7 9.6-9.7s9.7 4.3 9.7 9.6c0 .6 0 1.2-.2 1.8l11-2.1v-6z" fill="#74d84b"/><path d="m103.9 82.7s-15.4-9-39.9-7.5v23h23.9s0-.6 0-2.2c0-5.3 4.3-9.7 9.6-9.7s9.7 4.3 9.7 9.6c0 .6 0 1.2-.2 1.8l11-2.1v-6l-2.6-6.9z" fill="#5ac033"/><circle cx="40.9" cy="95.9" fill="#5a5a5a" r="9.6"/><circle cx="97.5" cy="95.9" fill="#444" r="9.6"/><circle cx="40.9" cy="95.9" fill="#fbbe2c" r="4.2"/><circle cx="97.5" cy="95.9" fill="#fd9e27" r="4.2"/><path d="m48.5 80.9 10.2 3.7 10.1-6.2-7.3-3.1z" fill="#deecf1"/><path d="m58.7 84.6h29.9s-5.4-6-19.7-6.1z" fill="#c7e2e7"/><path d="m13.7 87.4 7.7 2.5-3.6 3.4-5.9-2z" fill="#fbbe2c"/><g fill="#2d2d2d"><path d="m40.9 101.8c3.3 0 5.9-2.6 5.9-5.9s-2.6-5.9-5.9-5.9-5.9 2.6-5.9 5.9c-.1 3.3 2.6 5.9 5.9 5.9zm0-8.3c1.3 0 2.4 1.1 2.4 2.4s-1.1 2.4-2.4 2.4-2.4-1.1-2.4-2.4c-.1-1.3 1-2.4 2.4-2.4z"/><path d="m97.5 90c-1 0-1.8.8-1.8 1.8s.8 1.8 1.8 1.8c1.3 0 2.4 1.1 2.4 2.4s-1.1 2.4-2.4 2.4-2.4-1.1-2.4-2.4c0-1-.8-1.8-1.8-1.8s-1.8.8-1.8 1.8c0 3.3 2.6 5.9 5.9 5.9s5.9-2.6 5.9-5.9c.1-3.3-2.5-6-5.8-6z"/><path d="m119.6 88.9-2.6-6.9c-.3-.7-.9-1.1-1.6-1.1h-11c-.6-.3-1.8-.9-3.5-1.7v-23.2c0-1-.8-1.8-1.8-1.8s-1.8.8-1.8 1.8v21.8c-.6-.2-1.3-.4-1.9-.7v-24.7h10.1c1 0 1.8-.8 1.8-1.8v-23.4c0-1-.8-1.8-1.8-1.8h-4.6v-.3c0-2.5-2-4.5-4.5-4.5s-4.5 2-4.5 4.5v.3h-37.9c-1 0-1.8.8-1.8 1.8s.8 1.8 1.8 1.8h49.7v19.9h-79.4v-19.9h16.6c1 0 1.8-.8 1.8-1.8s-.8-1.8-1.8-1.8h-4.8v-.3c0-2.5-2-4.5-4.5-4.5s-4.5 2-4.5 4.5v.3h-4.6c-1 0-1.8.8-1.8 1.8v23.4c0 1 .8 1.8 1.8 1.8h4.6v28.3c-5.5 1-10.9 2.7-14.5 5.4-.2.2-.4.4-.6.7l-3.7 8.2c-.4.9 0 1.9.9 2.3 3 1.3 6.1 2.2 9.3 2.7h.2 11.4c.5 1.4 1.4 2.8 2.4 3.9h-15.6c-1 0-1.8.8-1.8 1.8s.8 1.8 1.8 1.8h61.6c1 0 1.8-.8 1.8-1.8s-.8-1.8-1.8-1.8h-29.5c4.3-4.5 4.2-11.7-.3-16s-11.7-4.2-16 .3c-2 2.1-3.2 4.9-3.2 7.8v.5h-10.6c-2.3-.4-4.5-1-6.6-1.8l.5-1.2 4.4 1.5c.6.2 1.3.1 1.8-.4l3.5-3.4c.7-.7.7-1.8 0-2.5-.2-.2-.4-.4-.7-.5l-4-1.3c10.1-4.7 27.9-4.4 30.2-4.3l9.9 3.6c.5.2 1 .1 1.5-.1l9.8-5.9c4.6 0 9.1.9 13.3 2.6h-12.2c-1 0-1.8.8-1.8 1.8s.8 1.8 1.8 1.8h18.3c1 0 1.7-.8 1.7-1.8 0-.4-.2-.8-.4-1.2-.2-.3-5.9-6.3-20.2-6.7 20.4.1 33.3 7.4 33.4 7.4.3.2.6.2.9.2h10.2l2.1 5.5v4.2l-4.1.8c-.9.2-1.6 1.1-1.4 2s1.1 1.6 2 1.4l5.5-1.1c.8-.2 1.4-.9 1.4-1.7v-6c0-.1 0-.3-.1-.5zm-24.2-63.7c0-.5.4-1 1-1s1 .4 1 1v.3h-1.9v-.3zm-64.7 0c0-.5.4-1 1-1s1 .4 1 1v.3h-1.9zm10.2 62.9c4.3 0 7.8 3.5 7.8 7.8s-3.5 7.8-7.8 7.8-7.8-3.5-7.8-7.8c-.1-4.3 3.4-7.8 7.8-7.8zm-23.5 3.2-3.1-1 .3-.7 3.4 1.1zm41.1-8.7-5.2-1.9 8.3-3.5 3.5 1.5zm2.9-9c-.2 0-.4.1-.5.1l-12.7 5.4c-5.8-.1-11.7.2-17.5.9v-27.6h1.9v22.6c0 1 .8 1.8 1.8 1.8s1.8-.8 1.8-1.8v-22.6h55.8v23.8c-10-2.7-20.4-3.6-30.6-2.6z"/><path d="m47.3 29h.7c1 0 1.8-.8 1.8-1.8s-.8-1.7-1.8-1.7h-.7c-1 0-1.8.8-1.8 1.8s.9 1.7 1.8 1.7z"/><path d="m38.7 43-1.3-2.5c-.1-.2-.2-.4-.4-.5-.1-.2-.3-.3-.4-.5-.2-.1-.4-.2-.7-.3.3-.1.6-.2.9-.3 1.2-.8 1.5-2.3.7-3.5-.3-.4-.6-.6-1-.8-.6-.2-1.2-.2-1.9-.2h-4.4v8.6h2.7v-3.5h.2c.2 0 .5.1.7.2.2.2.4.4.5.7l1.4 2.6h5.7l.4-1.4h3l.4 1.4h2.8l-3.2-8.6h-2.9zm-3.6-5.5c-.1.1-.3.2-.4.3-.2.1-.5.1-.7.1h-1.1v-1.7h1.1c.3 0 .7 0 1 .2.3.3.4.7.1 1.1zm8.2-.9.9 3.1h-1.9z"/><path d="m52.7 36.2c.2 0 .5.1.7.2s.4.3.5.5.2.4.3.6l2.3-.5c-.2-.8-.7-1.5-1.4-2-1.8-1-4.1-.8-5.8.5-.8.9-1.2 2.1-1.1 3.3 0 .9.2 1.8.6 2.6.4.6.9 1.1 1.5 1.4.7.3 1.5.4 2.3.4.6 0 1.3-.1 1.9-.3.5-.2.9-.6 1.3-1 .4-.5.6-1 .7-1.6l-2.3-.7c-.1.5-.3.9-.6 1.2-.7.6-1.7.6-2.4-.1-.3-.6-.5-1.3-.4-2 0-.6.1-1.2.4-1.7.4-.5 1-.8 1.5-.8z"/><path d="m65.1 36.2v-1.8h-7.1v8.6h7.2v-2h-4.6v-1.7h4.2v-1.7h-4.2v-1.4z"/><path d="m74.7 36.2c.2 0 .5.1.7.2s.4.3.5.5.2.4.3.6l2.3-.5c-.2-.8-.7-1.5-1.4-2-1.8-1-4.1-.8-5.8.5-.8.9-1.2 2.1-1.1 3.3 0 .9.2 1.8.6 2.6.4.6.9 1.1 1.5 1.4.7.3 1.5.4 2.3.4.6 0 1.3-.1 1.9-.3.5-.2.9-.6 1.3-1 .4-.5.6-1 .7-1.6l-2.3-.7c-.1.5-.3.9-.6 1.2-.7.6-1.7.6-2.4-.1-.3-.6-.5-1.3-.4-2 0-.6.1-1.2.4-1.7.4-.5 1-.8 1.5-.8z"/><path d="m85.2 41.6.4 1.4h2.8l-3.2-8.6h-2.9l-3.2 8.6h2.7l.4-1.4zm-1.5-5 .9 3.1h-1.9z"/><path d="m96.8 38c.4-.8.4-1.8-.1-2.6-.3-.4-.6-.6-1-.8-.6-.2-1.2-.2-1.9-.2h-4.4v8.6h2.6v-3.5h.2c.2 0 .5.1.7.2.2.2.4.4.5.7l1.4 2.6h3l-1.3-2.5c-.1-.2-.2-.4-.4-.5-.1-.2-.3-.3-.4-.5-.2-.1-.4-.2-.7-.3.3-.1.6-.2.9-.3.4-.3.7-.5.9-.9zm-2.5-.5c-.1.1-.3.2-.4.3-.2.1-.5.1-.7.1h-1.2v-1.7h1.2c.3 0 .7 0 1 .2.3.3.3.7.1 1.1z"/><path d="m118 103.8h-12.3c4.3-4.5 4.2-11.7-.3-16s-11.7-4.2-16 .3c-2 2.1-3.2 4.9-3.2 7.9v.5h-29.4c-1 0-1.8.8-1.8 1.8s.8 1.8 1.8 1.8h30.1c.5 1.4 1.4 2.8 2.4 3.9h-4.9c-1 0-1.8.8-1.8 1.8s.8 1.8 1.8 1.8h33.6c1 0 1.8-.8 1.8-1.8s-.8-2-1.8-2zm-28.3-7.9c0-4.3 3.5-7.8 7.8-7.8s7.8 3.5 7.8 7.8-3.5 7.8-7.8 7.8c-4.3.1-7.8-3.4-7.8-7.8z"/><path d="m11.3 103.8h-1.3c-1 0-1.8.8-1.8 1.8s.8 1.8 1.8 1.8h1.3c1 0 1.8-.8 1.8-1.8s-.9-1.8-1.8-1.8z"/></g></svg>