<svg id="Layer_1" height="512" viewBox="0 0 128 128" width="512" xmlns="http://www.w3.org/2000/svg" data-name="Layer 1"><path d="m61.949 54.87-8.384-5.117a1.75 1.75 0 1 0 -1.823 2.987l2.524 1.541-8.166 13.474a1.75 1.75 0 1 0 3 1.814l8.154-13.469 2.872 1.753a1.75 1.75 0 0 0 1.823-2.987z" fill="#5a5a5a"/><path d="m82.214 62.772h-20.749l-4.619 6.586h25.368z" fill="#e43c53"/><path d="m53.258 82.062h-43.158s-2.634-12.7 19.656-12.7h51.06s2.286-28.977 21.1-28.977l6.962-.178v41.855z" fill="#fbbe2c"/><path d="m80.816 69.358h-16.816v12.7h44.881v-41.858l-6.962.178c-18.819.003-21.103 28.98-21.103 28.98z" fill="#fd9e27"/><path d="m64 62.772h18.214v6.586h-18.214z" fill="#ca3046"/><path d="m20.609 70.289s6.1-19.372 26.57-19.372v18.44z" fill="#e43c53"/><circle cx="101.919" cy="72.649" fill="#444" r="15.149"/><circle cx="101.919" cy="72.649" fill="#c7e2e7" r="6.19"/><path d="m113.517 52.714h-12.994v-6.535h17.477z" fill="#ca3046"/><circle cx="29.752" cy="76.652" fill="#5a5a5a" r="11.145"/><circle cx="29.752" cy="76.652" fill="#deecf1" r="2.938"/><g fill="#2d2d2d"><path d="m118 86.047h-5.824a16.843 16.843 0 0 0 -1.544-27.85v-3.733h2.885a1.75 1.75 0 0 0 1.443-.76l4.483-6.535a1.75 1.75 0 0 0 -1.443-2.74h-17.478a1.75 1.75 0 0 0 -1.75 1.75v6.535a1.75 1.75 0 0 0 1.75 1.75h6.609v2.118a16.813 16.813 0 0 0 -5.213-.832c-.519 0-1.042.024-1.556.071a1.75 1.75 0 1 0 .318 3.485q.611-.056 1.237-.056a13.4 13.4 0 1 1 -11.007 5.756 1.75 1.75 0 0 0 -2.873-2 16.835 16.835 0 0 0 -1.162 17.3h-39.7a1.75 1.75 0 0 0 0 3.5h42.091a17.013 17.013 0 0 0 2.4 2.236h-5.666a1.75 1.75 0 0 0 0 3.5h32a1.75 1.75 0 0 0 0-3.5zm-15.728-38.118h12.4l-2.082 3.035h-10.318z"/><path d="m78.667 86.047h-.75a1.75 1.75 0 0 0 0 3.5h.75a1.75 1.75 0 0 0 0-3.5z"/><path d="m71.667 86.047h-33.11a12.8 12.8 0 0 0 2.82-14.94h39.44a1.751 1.751 0 0 0 1.744-1.607c.022-.274 2.385-27.365 19.4-27.366l6.963-.178a1.75 1.75 0 0 0 -.09-3.5l-6.918.178c-8.466 0-15.116 5.389-19.23 15.583a56.9 56.9 0 0 0 -3.436 13.39h-19.039l2.164-3.085h13.292a1.75 1.75 0 0 0 0-3.5h-14.2a1.751 1.751 0 0 0 -1.433.745l-4.1 5.84h-5.649l6.969-11.5 2.872 1.753a1.75 1.75 0 0 0 1.823-2.987l-8.384-5.117a1.75 1.75 0 1 0 -1.823 2.987l2.524 1.541-5.338 8.811v-12.178a1.75 1.75 0 0 0 -1.75-1.75 30.327 30.327 0 0 0 -8.755 1.246 1.75 1.75 0 1 0 1.01 3.352 26.138 26.138 0 0 1 6-1.045v14.887h-6.5a12.8 12.8 0 0 0 -13.433-3.114 28.987 28.987 0 0 1 4.263-5.093 1.75 1.75 0 1 0 -2.4-2.55 33.857 33.857 0 0 0 -8.087 11.978c-12.813 3.519-10.915 13.486-10.893 13.589a1.75 1.75 0 0 0 1.717 1.395h8.938a12.983 12.983 0 0 0 1.913 2.236h-10.951a1.75 1.75 0 0 0 0 3.5h61.667a1.75 1.75 0 0 0 0-3.5zm-59.926-5.735c.112-1.81 1.023-4.975 5.592-7.084a12.653 12.653 0 0 0 .06 7.084zm8.616-3.659a9.4 9.4 0 1 1 9.4 9.4 9.405 9.405 0 0 1 -9.4-9.401z"/><path d="m33.073 56.441a1.739 1.739 0 0 0 .9-.253l.356-.211a1.75 1.75 0 1 0 -1.76-3.025l-.407.241a1.75 1.75 0 0 0 .907 3.248z"/><path d="m95.845 58.653a1.751 1.751 0 0 0 -2.393-.632c-.212.124-.42.25-.626.382a1.75 1.75 0 1 0 1.885 2.948q.248-.158.5-.305a1.75 1.75 0 0 0 .634-2.393z"/><path d="m29.752 71.964a1.75 1.75 0 0 0 0 3.5 1.188 1.188 0 1 1 -1.188 1.188 1.75 1.75 0 0 0 -3.5 0 4.688 4.688 0 1 0 4.688-4.688z"/><path d="m101.919 80.589a7.94 7.94 0 1 0 -7.94-7.94 7.95 7.95 0 0 0 7.94 7.94zm0-12.381a4.44 4.44 0 1 1 -4.44 4.44 4.446 4.446 0 0 1 4.44-4.44z"/></g></svg>