<svg id="Layer_1" height="512" viewBox="0 0 128 128" width="512" xmlns="http://www.w3.org/2000/svg" data-name="Layer 1"><path d="m54.167 10h19.667v8h-19.667z" fill="#deecf1"/><path d="m70.083 30.833h-12.166l-2-12.833h16.166z" fill="#fbbe2c"/><path d="m104.167 60h19.667v8h-19.667z" fill="#c7e2e7" transform="matrix(0 1 -1 0 178 -50)"/><path d="m97.167 70.083v-12.166l12.833-2v16.166z" fill="#fd9e27"/><path d="m54.167 110h19.667v8h-19.667z" fill="#deecf1" transform="matrix(-1 0 0 -1 128 228)"/><path d="m57.917 97.167h12.166l2 12.833h-16.166z" fill="#fbbe2c"/><path d="m4.167 60h19.667v8h-19.667z" fill="#deecf1" transform="matrix(0 -1 1 0 -50 78)"/><path d="m30.833 57.917v12.166l-12.833 2v-16.166z" fill="#fbbe2c"/><path d="m82.471 57.917a12.388 12.388 0 0 1 -12.388-12.388v-14.7h-12.166v14.7a12.388 12.388 0 0 1 -12.388 12.388h-14.7v12.166h14.7a12.388 12.388 0 0 1 12.388 12.388v14.7h12.166v-14.7a12.388 12.388 0 0 1 12.388-12.388h14.7v-12.166zm-18.471 12.002a5.919 5.919 0 1 1 5.919-5.919 5.919 5.919 0 0 1 -5.919 5.919z" fill="#deecf1"/><path d="m70.083 45.529v-14.7h-6.083v27.252a5.919 5.919 0 1 1 0 11.839v27.247h6.083v-14.7a12.388 12.388 0 0 1 12.388-12.384h14.7v-12.166h-14.7a12.388 12.388 0 0 1 -12.388-12.388z" fill="#c7e2e7"/><path d="m64 30.833h6.083l2-12.833h-8.083z" fill="#fd9e27"/><path d="m64 110h8.083l-2-12.833h-6.083z" fill="#fd9e27"/><path d="m64 10h9.833v8h-9.833z" fill="#c7e2e7"/><path d="m64 110h9.833v8h-9.833z" fill="#c7e2e7"/><g fill="#2d2d2d"><path d="m63.25 11.75h.75a1.75 1.75 0 0 0 0-3.5h-.75a1.75 1.75 0 0 0 0 3.5z"/><path d="m118 52.417h-8a1.75 1.75 0 0 0 -1.75 1.75v15.872l-9.333-1.454v-9.17l4.937-.769a1.75 1.75 0 0 0 -.539-3.459l-6.285.979h-14.559a10.65 10.65 0 0 1 -10.638-10.638v-8.2a1.75 1.75 0 0 0 -3.5 0v8.2a14.154 14.154 0 0 0 14.138 14.139h12.946v8.666h-9.417a1.75 1.75 0 0 0 0 3.5h11.029l11.221 1.749v.251a1.75 1.75 0 0 0 1.75 1.75h8a1.75 1.75 0 0 0 1.75-1.75v-19.666a1.75 1.75 0 0 0 -1.75-1.75zm-1.75 19.666h-4.5v-16.166h4.5z"/><path d="m73.833 108.25h-.252l-1.748-11.218v-14.56a10.619 10.619 0 0 1 2.715-7.1 1.75 1.75 0 1 0 -2.605-2.336 14.108 14.108 0 0 0 -3.609 9.436v12.945h-10.417a1.75 1.75 0 0 0 -1.729 1.48l-1.77 11.353h-.252a1.75 1.75 0 0 0 -1.75 1.75v8a1.75 1.75 0 0 0 1.75 1.75h19.667a1.75 1.75 0 0 0 1.75-1.75v-8a1.75 1.75 0 0 0 -1.75-1.75zm-14.418-9.333h9.17l1.455 9.333h-12.08zm12.668 17.333h-16.166v-4.5h16.166z"/><path d="m78.769 68.823q-.335.092-.663.2a1.75 1.75 0 0 0 1.079 3.33q.25-.082.506-.15a1.75 1.75 0 1 0 -.922-3.377z"/><path d="m45.529 71.833a10.65 10.65 0 0 1 10.638 10.639v7.861a1.75 1.75 0 0 0 3.5 0v-7.861a14.154 14.154 0 0 0 -14.138-14.139h-12.946v-10.416a1.751 1.751 0 0 0 -1.48-1.729l-11.353-1.77v-.251a1.75 1.75 0 0 0 -1.75-1.75h-8a1.75 1.75 0 0 0 -1.75 1.75v19.666a1.75 1.75 0 0 0 1.75 1.75h8a1.75 1.75 0 0 0 1.75-1.75v-.251l11.221-1.749zm-29.279.25h-4.5v-16.166h4.5zm3.5-14.122 9.333 1.454v9.17l-9.333 1.454z"/><path d="m37.833 59.667h7.7a14.154 14.154 0 0 0 14.134-14.139v-12.945h10.416a1.75 1.75 0 0 0 1.729-1.48l1.77-11.353h.252a1.75 1.75 0 0 0 1.749-1.75v-8a1.75 1.75 0 0 0 -1.75-1.75h-3.958a1.75 1.75 0 0 0 0 3.5h2.208v4.5h-16.166v-4.5h1a1.75 1.75 0 0 0 0-3.5h-2.75a1.75 1.75 0 0 0 -1.75 1.75v8a1.75 1.75 0 0 0 1.75 1.75h.252l1.748 11.218v14.56a10.65 10.65 0 0 1 -10.638 10.639h-7.7a1.75 1.75 0 0 0 0 3.5zm32.207-39.917-1.455 9.333h-9.17l-1.455-9.333z"/><path d="m64 68.169a1.75 1.75 0 0 0 0 3.5 7.669 7.669 0 1 0 -7.669-7.669 1.75 1.75 0 0 0 3.5 0 4.169 4.169 0 1 1 4.169 4.169z"/></g></svg>