<svg id="Layer_1" height="512" viewBox="0 0 128 128" width="512" xmlns="http://www.w3.org/2000/svg" data-name="Layer 1"><path d="m21.645 97.167-6.645 12.083v-95.928a3.322 3.322 0 0 1 3.322-3.322 3.322 3.322 0 0 1 3.322 3.322z" fill="#5a5a5a"/><path d="m113 109.25-6.645-12.083v-83.845a3.322 3.322 0 0 1 3.323-3.322 3.322 3.322 0 0 1 3.322 3.322z" fill="#444"/><path d="m10 17h108v29.795h-108z" fill="#e43c53"/><path d="m64.434 17h53.566v29.795h-53.566z" fill="#ca3046"/><path d="m118 118h-108l20.876-37.333h66.248z" fill="#fbbe2c"/><path d="m64.434 118h53.566l-20.876-37.333h-32.69z" fill="#fd9e27"/><path d="m113 109.25h-98.107l11.663-20.858h74.888z" fill="#5a5a5a"/><path d="m64.434 109.25h48.673l-11.663-20.858h-37.01z" fill="#444"/><path d="m36.981 97.167h-15.332l4.907-8.775h15.944z" fill="#deecf1"/><path d="m45.75 109.25h-16.018l7.249-12.083h15.944z" fill="#deecf1"/><path d="m82.255 109.25h16.018l-7.25-12.083h-15.943z" fill="#c7e2e7"/><path d="m91.023 97.167h15.332l-4.906-8.775h-15.944z" fill="#c7e2e7"/><path d="m70.08 88.392h-12.155l-5 8.775h22.155z" fill="#deecf1"/><path d="m38.75 26.467h7.493v2.108h-4.449v1.713h3.8v1.98h-3.8v4.008h-3.044z" fill="#deecf1"/><path d="m48 26.467h3.037v9.808h-3.037z" fill="#deecf1"/><path d="m53.228 26.467h2.83l3.693 5.427v-5.427h2.857v9.808h-2.856l-3.674-5.385v5.385h-2.85z" fill="#deecf1"/><path d="m64.743 26.467h3.037v9.808h-3.037z" fill="#deecf1"/><path d="m69.426 33.031 2.884-.181a2.2 2.2 0 0 0 .381 1.07 1.6 1.6 0 0 0 1.338.6 1.482 1.482 0 0 0 1-.3.912.912 0 0 0 .351-.706.9.9 0 0 0 -.335-.682 3.874 3.874 0 0 0 -1.552-.569 6.6 6.6 0 0 1 -2.843-1.191 2.4 2.4 0 0 1 -.856-1.893 2.572 2.572 0 0 1 .438-1.428 2.907 2.907 0 0 1 1.318-1.057 6.154 6.154 0 0 1 2.412-.385 4.933 4.933 0 0 1 2.867.7 3.018 3.018 0 0 1 1.171 2.215l-2.857.167a1.335 1.335 0 0 0 -1.485-1.265 1.215 1.215 0 0 0 -.8.224.687.687 0 0 0 -.268.545.546.546 0 0 0 .221.422 2.484 2.484 0 0 0 1.017.361 12.722 12.722 0 0 1 2.847.866 2.992 2.992 0 0 1 1.251 1.087 2.756 2.756 0 0 1 .391 1.452 3.11 3.11 0 0 1 -.522 1.74 3.266 3.266 0 0 1 -1.459 1.208 5.893 5.893 0 0 1 -2.362.411 4.864 4.864 0 0 1 -3.466-.963 3.8 3.8 0 0 1 -1.082-2.448z" fill="#deecf1"/><path d="m79.863 26.467h3.031v3.433h3.312v-3.433h3.044v9.808h-3.044v-3.967h-3.312v3.967h-3.031z" fill="#deecf1"/><path d="m64.434 97.167h10.646l-5-8.775h-5.646z" fill="#c7e2e7"/><g fill="#2d2d2d"><path d="m84.042 82.417h.516a1.75 1.75 0 0 0 0-3.5h-.516a1.75 1.75 0 0 0 0 3.5z"/><path d="m11.332 115.62a1.752 1.752 0 0 0 -2.382.672l-.478.853a1.75 1.75 0 1 0 3.055 1.71l.473-.855a1.75 1.75 0 0 0 -.668-2.38z"/><path d="m108.105 48.545h9.895a1.75 1.75 0 0 0 1.75-1.75v-29.795a1.75 1.75 0 0 0 -1.75-1.75h-3.25v-1.928a5.072 5.072 0 1 0 -10.145 0v1.928h-59.042a1.75 1.75 0 0 0 0 3.5h70.687v26.295h-104.5v-26.295h19.982a1.75 1.75 0 0 0 0-3.5h-8.337v-1.928a5.072 5.072 0 1 0 -10.145 0v1.928h-3.25a1.75 1.75 0 0 0 -1.75 1.75v29.795a1.75 1.75 0 0 0 1.75 1.75h3.25v47.455a1.75 1.75 0 0 0 3.5 0v-47.455h3.145v48.175l-8.278 14.8a1.75 1.75 0 1 0 3.055 1.708l8.005-14.316h11.213l-5.149 8.588h-4.741a1.75 1.75 0 0 0 0 3.5h88.081l4.392 7.854a1.75 1.75 0 1 0 3.055-1.708l-4.778-8.546v-53.85a1.75 1.75 0 0 0 -3.5 0v47.593l-3.145-5.623zm0-35.223a1.572 1.572 0 1 1 3.145 0v1.928h-3.145zm-91.355 0a1.572 1.572 0 1 1 3.145 0v1.928h-3.145zm82.514 94.178-5.149-8.583h11.21l4.8 8.583zm-16.013 0-6.665-11.225-3.495-6.133h27.326l2.95 5.275h-11.377l-2.244-3.569a1.75 1.75 0 1 0 -2.963 1.863l1.073 1.706h-3.814a1.75 1.75 0 0 0 0 3.5h5.99l5.149 8.583zm-11.183-12.083h-16.131l3.005-5.275h10.121zm-20.16 0h-11.759l3.317-5.275h11.448zm-28.513-46.872h81.211v41.916l-5.955-10.648a1.75 1.75 0 0 0 -1.527-.9h-5.456a1.75 1.75 0 0 0 0 3.5h4.432l2.363 4.225h-68.923l2.36-4.221h45.85a1.75 1.75 0 0 0 0-3.5h-46.874a1.75 1.75 0 0 0 -1.527.9l-5.954 10.644zm4.188 41.6h11.749l-3.317 5.275h-11.382zm10.39 8.775h11.878l-2.018 3.4a1.75 1.75 0 0 0 3.01 1.787l3.078-5.186h20.163l5.1 8.583h-46.361z"/><path d="m38.75 18.75h.625a1.75 1.75 0 0 0 0-3.5h-.625a1.75 1.75 0 0 0 0 3.5z"/><path d="m46.243 28.575v-2.108h-7.493v9.809h3.044v-4.008h3.8v-1.98h-3.8v-1.713z"/><path d="m47.996 26.467h3.038v9.808h-3.038z"/><path d="m59.752 36.276h2.856v-9.809h-2.856v5.427l-3.694-5.427h-2.83v9.809h2.85v-5.386z"/><path d="m64.743 26.467h3.037v9.808h-3.037z"/><path d="m74.029 34.516a1.6 1.6 0 0 1 -1.338-.6 2.2 2.2 0 0 1 -.381-1.07l-2.884.181a3.8 3.8 0 0 0 1.091 2.449 4.864 4.864 0 0 0 3.466.963 5.892 5.892 0 0 0 2.362-.411 3.265 3.265 0 0 0 1.455-1.204 3.11 3.11 0 0 0 .522-1.74 2.756 2.756 0 0 0 -.391-1.452 2.992 2.992 0 0 0 -1.251-1.087 12.722 12.722 0 0 0 -2.847-.866 2.483 2.483 0 0 1 -1.017-.361.546.546 0 0 1 -.216-.418.687.687 0 0 1 .268-.545 1.215 1.215 0 0 1 .8-.224 1.335 1.335 0 0 1 1.485 1.265l2.847-.172a3.018 3.018 0 0 0 -1.171-2.224 4.932 4.932 0 0 0 -2.867-.7 6.154 6.154 0 0 0 -2.412.385 2.906 2.906 0 0 0 -1.318 1.057 2.572 2.572 0 0 0 -.438 1.428 2.4 2.4 0 0 0 .856 1.893 6.6 6.6 0 0 0 2.843 1.191 3.873 3.873 0 0 1 1.552.569.9.9 0 0 1 .335.682.912.912 0 0 1 -.351.706 1.482 1.482 0 0 1 -1 .305z"/><path d="m79.863 26.467v9.809h3.031v-3.968h3.312v3.968h3.044v-9.809h-3.044v3.433h-3.312v-3.433z"/></g></svg>