<svg id="Layer_1" height="512" viewBox="0 0 128 128" width="512" xmlns="http://www.w3.org/2000/svg" data-name="Layer 1"><path d="m105.314 118h-82.628v-62.398l41.314-20.705 41.314 20.705z" fill="#e43c53"/><path d="m105.314 118v-62.398l-41.314-20.705v83.103z" fill="#ca3046"/><path d="m64 8.25a1.75 1.75 0 0 0 -1.75 1.75v14.5a1.75 1.75 0 0 0 3.5 0v-14.5a1.75 1.75 0 0 0 -1.75-1.75z" fill="#444"/><path d="m60.875 24.5h6.25v10.397h-6.25z" fill="#5a5a5a"/><path d="m114.272 66.242a3.7 3.7 0 0 1 -1.79-.461l-48.482-26.636-48.482 26.636a3.724 3.724 0 1 1 -3.586-6.528l50.275-27.62a3.727 3.727 0 0 1 3.586 0l50.275 27.621a3.725 3.725 0 0 1 -1.8 6.989z" fill="#fbbe2c"/><path d="m33.333 73.309h61.333v7.449h-61.333z" fill="#6ac1ec"/><path d="m33.333 80.757h61.333v7.449h-61.333z" fill="#deecf1"/><path d="m33.333 88.206h61.333v7.449h-61.333z" fill="#6ac1ec"/><path d="m33.333 95.654h61.333v7.449h-61.333z" fill="#deecf1"/><path d="m33.333 103.103h61.333v7.449h-61.333z" fill="#6ac1ec"/><path d="m33.333 110.551h61.333v7.449h-61.333z" fill="#deecf1"/><path d="m80.375 19.625h-18.125v-7.991h18.125l-4.438 3.995z" fill="#1cace6"/><circle cx="64" cy="59.375" fill="#deecf1" r="6.375"/><path d="m22.686 118h-12.686v-26.07l12.686-9.68z" fill="#fbbe2c"/><path d="m105.314 118h12.686v-26.07l-12.686-9.68z" fill="#fd9e27"/><path d="m112.482 65.781a3.724 3.724 0 0 0 3.586-6.528l-50.275-27.62a3.725 3.725 0 0 0 -1.793-.46v7.972z" fill="#fd9e27"/><path d="m64 73.309h30.667v7.449h-30.667z" fill="#1cace6"/><path d="m64 80.757h30.667v7.449h-30.667z" fill="#c7e2e7"/><path d="m64 88.206h30.667v7.449h-30.667z" fill="#1cace6"/><path d="m64 95.654h30.667v7.449h-30.667z" fill="#c7e2e7"/><path d="m64 103.103h30.667v7.449h-30.667z" fill="#1cace6"/><path d="m64 110.551h30.667v7.449h-30.667z" fill="#c7e2e7"/><path d="m70.375 59.375a6.375 6.375 0 0 0 -6.375-6.375v12.75a6.375 6.375 0 0 0 6.375-6.375z" fill="#c7e2e7"/><g fill="#2d2d2d"><path d="m105.314 104.854a1.75 1.75 0 0 0 1.75-1.75v-1.271a1.75 1.75 0 0 0 -3.5 0v1.267a1.75 1.75 0 0 0 1.75 1.754z"/><path d="m45.3 42.67a1.744 1.744 0 0 0 .841-.216l.679-.373a1.75 1.75 0 0 0 -1.685-3.068l-.679.373a1.75 1.75 0 0 0 .844 3.284z"/><path d="m53.083 86.456h-.833a1.75 1.75 0 0 0 0 3.5h.833a1.75 1.75 0 0 0 0-3.5z"/><path d="m64 54.75a1.75 1.75 0 0 0 0-3.5 8.125 8.125 0 1 0 8.125 8.125 1.75 1.75 0 0 0 -3.5 0 4.625 4.625 0 1 1 -4.625-4.625z"/><path d="m119.062 90.538-12-9.154v-10.734a1.75 1.75 0 0 0 -3.5 0v25a1.75 1.75 0 0 0 3.5 0v-9.863l9.188 7.013v23.45h-9.186v-5.7a1.75 1.75 0 0 0 -3.5 0v5.7h-7.147v-42.941a1.75 1.75 0 0 0 -1.75-1.75h-61.334a1.75 1.75 0 0 0 -1.75 1.75v42.941h-7.147v-53.371l39.564-21.736 47.637 26.171a5.474 5.474 0 1 0 5.274-9.595l-48.036-26.39v-6.829a1.75 1.75 0 0 0 -1.75-1.75h-1.375v-9.366h10.066l-1.049.944a1.75 1.75 0 0 0 0 2.6l1.05.945h-4.65a1.75 1.75 0 0 0 0 3.5h9.208a1.75 1.75 0 0 0 1.171-3.051l-2.993-2.7 2.993-2.694a1.75 1.75 0 0 0 -1.171-3.051h-14.637a1.746 1.746 0 0 0 -3.488.123v12.75h-1.375a1.75 1.75 0 0 0 -1.75 1.75v6.829l-8.408 4.619a1.75 1.75 0 0 0 1.683 3.069l10.647-5.85a1.958 1.958 0 0 1 1.9 0l50.276 27.62a1.975 1.975 0 0 1 .779 2.681 2.013 2.013 0 0 1 -2.68.779l-48.479-26.636a1.757 1.757 0 0 0 -1.686 0l-48.483 26.637a1.974 1.974 0 0 1 -1.9-3.461l28.152-15.466a1.75 1.75 0 0 0 -1.686-3.068l-28.151 15.466a5.475 5.475 0 1 0 5.271 9.6l4.576-2.519v16.584l-12 9.154a1.75 1.75 0 0 0 -.686 1.392v26.07a1.75 1.75 0 0 0 1.75 1.75h6.343a1.75 1.75 0 1 0 0-3.5h-4.593v-23.45l9.186-7.009v32.209a1.75 1.75 0 0 0 1.75 1.75h95.314a1.75 1.75 0 0 0 1.75-1.75v-26.07a1.75 1.75 0 0 0 -.688-1.392zm-56.437-60.938v-3.35h2.75v3.35a5.427 5.427 0 0 0 -2.75 0zm-27.542 67.8h51.917a1.75 1.75 0 0 0 0-3.5h-51.917v-3.944h10.217a1.75 1.75 0 1 0 0-3.5h-10.217v-3.949h57.834v3.949h-34.084a1.75 1.75 0 0 0 0 3.5h34.084v11.4h-57.834zm0-22.346h57.834v3.948h-57.834zm0 35.493v-5.7h57.834v3.953h-52.042a1.75 1.75 0 0 0 0 3.5h52.042v3.948h-57.834z"/></g></svg>