<svg id="Layer_1" enable-background="new 0 0 128 128" height="512" viewBox="0 0 128 128" width="512" xmlns="http://www.w3.org/2000/svg"><path d="m31.6 15.3c1.5 0 2.7 1.2 2.7 2.7v82.7h-5.4v-82.7c0-1.5 1.2-2.7 2.7-2.7z" fill="#5a5a5a"/><path d="m96.4 15.3c1.5 0 2.7 1.2 2.7 2.7v82.7h-5.4v-82.7c0-1.5 1.2-2.7 2.7-2.7z" fill="#444"/><path d="m96.9 94.7c-12.9-12.4-29.9-7.1-29.9-7.1v6.1h-26.4v10.9h71.2c-.9 0-5.4-.9-14.9-9.9z" fill="#e43c53"/><path d="m67 87.6v6.1h-3v10.9h47.8c-.9 0-5.4-1-14.8-10-13-12.3-30-7-30-7z" fill="#ca3046"/><path d="m10 104.6h103.1c2.7 0 4.9 2.2 4.9 4.9h-108z" fill="#fbbe2c"/><path d="m64 104.6v4.9h54c0-2.7-2.2-4.9-4.9-4.9z" fill="#fd9e27"/><path d="m22.5 20h83v23.4h-83z" fill="#fbbe2c"/><path d="m64 20h41.5v23.4h-41.5z" fill="#fd9e27"/><path d="m40.3 79.2h4.4v25.4h-29.8c0-14 11.3-25.4 25.4-25.4z" fill="#e43c53"/><circle cx="29" cy="102.5" fill="#5a5a5a" r="10.2"/><circle cx="84.6" cy="102.5" fill="#444" r="10.2"/><path d="m14.1 75.9h14.1v8.6h-14.1z" fill="#fbbe2c"/><path d="m25.8 67.9h-11.7v8h6.5z" fill="#e43c53"/><g fill="#2d2d2d"><path d="m49 21.8h.6c1 0 1.8-.8 1.8-1.8s-.8-1.8-1.8-1.8h-.6c-1 0-1.8.8-1.8 1.8s.8 1.8 1.8 1.8z"/><path d="m65.5 106.3c1 0 1.8-.8 1.8-1.8s-.8-1.8-1.8-1.8h-.3c-1 0-1.8.8-1.8 1.8s.8 1.8 1.8 1.8z"/><path d="m69.7 107.7h-29.9c.2-.4.4-.9.6-1.4h19.3c1 0 1.8-.8 1.8-1.8s-.8-1.8-1.8-1.8h-13.3v-23.5c0-1-.8-1.8-1.8-1.8h-4.4c-3.3 0-6.5.6-9.6 1.8v-34h1.9v27.8c0 1 .8 1.8 1.8 1.8s1.8-.8 1.8-1.8v-27.8h55.8v37.8c0 1 .8 1.8 1.8 1.8s1.8-.8 1.8-1.8v-37.8h10.1c1 0 1.8-.8 1.8-1.8v-23.4c0-1-.8-1.8-1.8-1.8h-4.6v-.2c0-2.5-1.9-4.5-4.4-4.5s-4.5 1.9-4.5 4.4v.1.3h-36.3c-1 0-1.8.8-1.8 1.8s.8 1.8 1.8 1.8h48v19.9h-79.5v-20h17.6c1 0 1.8-.8 1.8-1.8s-.8-1.8-1.8-1.8h-5.8v-.2c0-2.5-2-4.5-4.5-4.5s-4.5 2-4.5 4.5v.3h-4.6c-1 0-1.8.8-1.8 1.8v23.4c0 1 .8 1.8 1.8 1.8h4.6v21.6c-.3-.4-.8-.6-1.3-.6h-11.7c-1 0-1.8.8-1.8 1.8v16.6c0 1 .8 1.8 1.8 1.8h6.1c-4.2 4.5-6.6 10.4-7 16.5h-3.2c-1 0-1.8.8-1.8 1.8v4.9c0 1 .8 1.8 1.8 1.8h5.8c1 0 1.8-.8 1.8-1.8s-.8-1.8-1.8-1.8h-4v-1.4h6c2.1 6.2 8.8 9.6 15 7.5 1.7-.6 3.2-1.5 4.5-2.7h32.5c1 0 1.8-.8 1.8-1.8s-1-1.8-1.9-1.8zm25.7-89.7c0-.5.4-1 1-1s1 .4 1 1v.3h-1.9zm-64.7 0c0-.5.4-1 1-1s1 .4 1 1v.3h-1.9zm-3.5 51.1v5.1h-3.3zm-4.6.6-2.9 4.5h-3.8v-4.5zm-6.7 8h10.7v5.1h-10.7zm.8 25.1c.5-6.5 3.6-12.4 8.6-16.5h3c1 0 1.8-.8 1.8-1.8v-1.3c3.2-1.5 6.7-2.3 10.2-2.3h2.7v21.9h-2c0-.1 0-.2 0-.3-.1-6.6-5.4-11.9-12-11.8-6.5.1-11.7 5.3-11.8 11.8v.3zm3.9-.3c0-4.6 3.8-8.4 8.4-8.4s8.4 3.8 8.4 8.4-3.8 8.4-8.4 8.4c-4.6.1-8.4-3.7-8.4-8.4z"/><path d="m113.1 102.8h-1.3c-.2 0-3.6-.5-11-7.1v-46.2c0-1-.8-1.8-1.8-1.8s-1.8.8-1.8 1.8v43.1c-13.4-12-30.2-6.9-30.9-6.7s-1.2.9-1.2 1.7v4.4h-14.6c-1 0-1.8.8-1.8 1.8s.8 1.8 1.8 1.8h16.5c1 0 1.8-.8 1.8-1.8v-4.8c4-.9 16.9-2.7 27 6.9.7.7 1.4 1.4 2.1 2 2 1.8 4 3.5 6.2 5h-7.6c0-.1 0-.2 0-.3-.1-6.6-5.4-11.9-12-11.8-6.5.1-11.7 5.3-11.8 11.8v.3h-2.4c-1 0-1.8.8-1.8 1.8s.8 1.8 1.8 1.8h3c2.1 6.2 8.8 9.6 15 7.5 1.7-.6 3.2-1.5 4.5-2.7h25.2c1 0 1.8-.8 1.8-1.8-.1-3.7-3-6.7-6.7-6.7zm-36.9-.3c0-4.6 3.8-8.4 8.4-8.4s8.4 3.8 8.4 8.4-3.8 8.4-8.4 8.4c-4.6.1-8.4-3.7-8.4-8.4zm19.1 5.2c.2-.4.4-.9.6-1.4h17.2c1 0 2 .5 2.6 1.4z"/><path d="m29 99c-2 0-3.6 1.6-3.6 3.6s1.6 3.6 3.6 3.6 3.6-1.6 3.6-3.6c0-2-1.6-3.6-3.6-3.6z"/><path d="m84.6 99c-2 0-3.6 1.6-3.6 3.6s1.6 3.6 3.6 3.6 3.6-1.6 3.6-3.6c0-2-1.6-3.6-3.6-3.6z"/><path d="m41.9 30v-1.4h-4.7v6.2h1.9v-2.5h2.4v-1.3h-2.4v-1z"/><path d="m50.1 34.8v-6.1h3.2c1.2 0 2.4.4 2.4 1.7 0 1.1-.9 1.6-1.5 1.7.3.1.6.3.8.5.1.1 1.2 2.2 1.2 2.2h-2.2l-1-1.9c-.1-.2-.4-.6-.8-.6h-.2v2.5zm1.9-3.7h.8c.5 0 .9-.2.9-.6 0-.5-.5-.6-.9-.6-.2 0-.8 0-.8 0z"/><path d="m56.7 28.6h2.5l1 3.7 1-3.7h2.5v6.1h-1.6v-4.7l-1.2 4.7h-1.4l-1.2-4.7v4.7h-1.6z"/><path d="m68.8 28.6v3.7c0 .4-.3 1.1-1 1.1s-1-.6-1-1.1v-3.7h-1.9v3.7c0 1.6 1 2.6 2.9 2.6s0 0 0 0c1.9 0 2.9-1 2.9-2.6v-3.7z"/><path d="m72 28.6h1.9v4.6h3v1.5h-4.9z"/><path d="m81.5 33.8h-2.2l-.3 1h-1.9l2.3-6.1h2.1l2.3 6.1h-2zm-.4-1.4-.7-2.2-.7 2.2z"/><path d="m90.8 28.5v6.3h-1.7v-4.1c-.3.2-.5.4-.8.5-.3.2-.6.3-1 .4v-1.4c.5-.1.9-.4 1.4-.7.3-.3.6-.6.8-1z"/><path d="m45.8 28.5c-2.3 0-3.2 1.6-3.2 3.2 0 2 1.3 3.2 3.2 3.2s3.2-1.1 3.2-3.2c0-1.6-.9-3.2-3.2-3.2zm0 5c-1.1 0-1.3-1.4-1.3-1.7 0-.5.2-1.8 1.3-1.8s1.3 1.3 1.3 1.8c0 .3-.2 1.7-1.3 1.7z"/></g></svg>