<svg id="Layer_1" height="512" viewBox="0 0 128 128" width="512" xmlns="http://www.w3.org/2000/svg" data-name="Layer 1"><path d="m59.883 80.283h8.234v14.217h-8.234z" fill="#fbbe2c"/><path d="m57.461 62h13.078v18.283h-13.078z" fill="#fd9e27"/><path d="m36.428 10h55.144a0 0 0 0 1 0 0v35.2a27.572 27.572 0 0 1 -27.572 27.571 27.572 27.572 0 0 1 -27.572-27.571v-35.2a0 0 0 0 1 0 0z" fill="#fbbe2c"/><path d="m47.178 107.25h33.644a10.75 10.75 0 0 1 10.75 10.75 0 0 0 0 1 0 0h-55.144a0 0 0 0 1 0 0 10.75 10.75 0 0 1 10.75-10.75z" fill="#fbbe2c"/><path d="m47.172 94.5h33.656v12.75h-33.656z" fill="#deecf1"/><path d="m64 20.296 4.887 9.901 10.926 1.588-7.906 7.707 1.866 10.883-9.773-5.138-9.773 5.138 1.866-10.883-7.906-7.707 10.926-1.588z" fill="#deecf1"/><path d="m36.584 48.167a28.442 28.442 0 0 1 -10.517-24.984h10.355v-5.62h-12.802a2.81 2.81 0 0 0 -2.748 2.224 35.5 35.5 0 0 0 4.934 24.838 35.363 35.363 0 0 0 12.985 11.753 27.379 27.379 0 0 1 -2.207-8.211z" fill="#fbbe2c"/><path d="m91.416 48.167a28.442 28.442 0 0 0 10.516-24.984h-10.354v-5.62h12.8a2.81 2.81 0 0 1 2.748 2.224 35.5 35.5 0 0 1 -4.934 24.838 35.363 35.363 0 0 1 -12.983 11.753 27.379 27.379 0 0 0 2.207-8.211z" fill="#fd9e27"/><path d="m64 72.771a27.572 27.572 0 0 0 27.572-27.571v-35.2h-27.572z" fill="#fd9e27"/><path d="m64 80.283h4.117v14.217h-4.117z" fill="#fd9e27"/><path d="m64 94.5h16.828v12.75h-16.828z" fill="#c7e2e7"/><path d="m64 107.25v10.75h27.572a10.75 10.75 0 0 0 -10.75-10.75z" fill="#fd9e27"/><path d="m73.773 50.375-1.866-10.883 7.906-7.707-10.926-1.588-4.887-9.901v24.941z" fill="#c7e2e7"/><g fill="#2d2d2d"><path d="m49 11.75h.375a1.75 1.75 0 0 0 0-3.5h-.375a1.75 1.75 0 0 0 0 3.5z"/><path d="m77.25 116.25h-.75a1.75 1.75 0 0 0 0 3.5h.75a1.75 1.75 0 0 0 0-3.5z"/><path d="m48.21 56.483a1.75 1.75 0 1 0 -2.836 2.052 24.99 24.99 0 0 0 11.448 8.45 1.75 1.75 0 0 0 1.278-3.259 21.561 21.561 0 0 1 -9.89-7.243z"/><path d="m43.745 49.452a1.751 1.751 0 0 0 -1.521 1.953 10.127 10.127 0 0 0 .322 1.443 1.75 1.75 0 1 0 3.363-.968 7.409 7.409 0 0 1 -.213-.918 1.753 1.753 0 0 0 -1.951-1.51z"/><path d="m54.213 40.1-1.713 9.979a1.75 1.75 0 0 0 2.539 1.845l8.961-4.71 8.959 4.71a1.75 1.75 0 0 0 2.541-1.845l-1.713-9.979 7.248-7.064a1.751 1.751 0 0 0 -.97-2.985l-10.016-1.451-4.479-9.076a1.75 1.75 0 0 0 -3.139 0l-4.48 9.076-10.016 1.453a1.75 1.75 0 0 0 -.97 2.985zm5.152-8.174a1.75 1.75 0 0 0 1.318-.958l3.317-6.718 3.317 6.722a1.751 1.751 0 0 0 1.317.958l7.418 1.078-5.368 5.232a1.751 1.751 0 0 0 -.5 1.549l1.268 7.388-6.635-3.488a1.747 1.747 0 0 0 -1.629 0l-6.635 3.488 1.267-7.388a1.749 1.749 0 0 0 -.5-1.549l-5.368-5.232z"/><path d="m108.84 19.422a4.583 4.583 0 0 0 -4.46-3.608h-11.058v-5.814a1.75 1.75 0 0 0 -1.75-1.75h-36.114a1.75 1.75 0 0 0 0 3.5h34.364v33.45a25.822 25.822 0 0 1 -51.645 0v-33.45h4.823a1.75 1.75 0 0 0 0-3.5h-6.572a1.75 1.75 0 0 0 -1.75 1.75v5.814h-11.058a4.583 4.583 0 0 0 -4.46 3.609 37.438 37.438 0 0 0 5.178 26.155 34.688 34.688 0 0 0 2.709 3.622 1.75 1.75 0 1 0 2.661-2.274 31.07 31.07 0 0 1 -2.435-3.258 33.642 33.642 0 0 1 -4.69-23.519 1.065 1.065 0 0 1 1.037-.839h11.058v2.12h-8.61a1.75 1.75 0 0 0 -1.744 1.6 30.276 30.276 0 0 0 10.618 26.047 29.394 29.394 0 0 0 20.769 24.243v6.962a1.75 1.75 0 0 0 1.75 1.75h.672v10.718h-10.961a1.75 1.75 0 0 0 -1.75 1.75v5.625a1.75 1.75 0 0 0 3.5 0v-3.875h30.156v9.25h-31.9a12.514 12.514 0 0 0 -12.5 12.5 1.75 1.75 0 0 0 1.75 1.75h33.405a1.75 1.75 0 0 0 0-3.5h-31.484a9.015 9.015 0 0 1 8.829-7.25h33.644a9.015 9.015 0 0 1 8.829 7.25h-6.9a1.75 1.75 0 0 0 0 3.5h8.822a1.75 1.75 0 0 0 1.75-1.75 12.509 12.509 0 0 0 -10.744-12.362v-11.138a1.75 1.75 0 0 0 -1.75-1.75h-10.962v-10.717h.672a1.75 1.75 0 0 0 1.75-1.75v-6.963a29.455 29.455 0 0 0 18.265-15.7 37.028 37.028 0 0 0 13.107-12.04 37.385 37.385 0 0 0 5.179-26.158zm-81.12 5.512h6.958v19.087a26.805 26.805 0 0 1 -6.958-19.087zm38.647 67.816h-4.734v-10.717h4.734zm2.422-14.217h-9.578v-4.41a29.046 29.046 0 0 0 9.578 0zm31.937-34.861a32.327 32.327 0 0 1 -8.267 8.584 29.121 29.121 0 0 0 .6-3.18c10.818-9.046 11.04-21.186 10.618-26.044a1.749 1.749 0 0 0 -1.743-1.6h-4.2a1.75 1.75 0 0 0 0 3.5h2.551a26.809 26.809 0 0 1 -6.957 19.087v-24.705h11.052a1.066 1.066 0 0 1 1.037.839 33.593 33.593 0 0 1 -4.691 23.519z"/></g></svg>