<svg id="Layer_1" height="512" viewBox="0 0 128 128" width="512" xmlns="http://www.w3.org/2000/svg" data-name="Layer 1"><path d="m46.761 63.067h34.478v54.776h-34.478z" fill="#e43c53"/><path d="m64 63.067h17.239v54.776h-17.239z" fill="#ca3046"/><path d="m64 45.234a1.75 1.75 0 0 1 -1.75-1.75v-8.61a1.75 1.75 0 0 1 3.5 0v8.61a1.75 1.75 0 0 1 -1.75 1.75z" fill="#fd9e27"/><path d="m54.009 30.128a1.741 1.741 0 0 1 -.838-.215 15.794 15.794 0 0 1 -5.771-5.239 15.954 15.954 0 0 1 -2.2-11.162 2.877 2.877 0 0 1 2.8-2.265h5.073a1.75 1.75 0 0 1 0 3.5h-4.527a12.424 12.424 0 0 0 1.787 8.021 12.335 12.335 0 0 0 4.518 4.075 1.75 1.75 0 0 1 -.841 3.286z" fill="#fd9e27"/><path d="m73.991 30.128a1.75 1.75 0 0 1 -.841-3.286 12.335 12.335 0 0 0 4.518-4.075 12.426 12.426 0 0 0 1.788-8.021h-4.528a1.75 1.75 0 0 1 0-3.5h5.072a2.877 2.877 0 0 1 2.8 2.267 15.95 15.95 0 0 1 -2.2 11.16 15.794 15.794 0 0 1 -5.773 5.239 1.741 1.741 0 0 1 -.836.216z" fill="#fd9e27"/><path d="m53.074 10h21.852a0 0 0 0 1 0 0v13.948a10.926 10.926 0 0 1 -10.926 10.926 10.926 10.926 0 0 1 -10.926-10.926v-13.948a0 0 0 0 1 0 0z" fill="#fbbe2c"/><path d="m57.334 48.536h13.332a4.26 4.26 0 0 1 4.26 4.26 0 0 0 0 1 0 0h-21.852a0 0 0 0 1 0 0 4.26 4.26 0 0 1 4.26-4.26z" fill="#fbbe2c"/><path d="m57.332 43.484h13.336v5.052h-13.336z" fill="#deecf1"/><path d="m44.478 52.796h39.044v10.27h-39.044z" fill="#deecf1"/><path d="m10 81.782h36.761v10.27h-36.761z" fill="#deecf1"/><path d="m81.239 71.512h36.761v10.27h-36.761z" fill="#c7e2e7"/><path d="m12.283 92.053h34.478v25.79h-34.478z" fill="#74d84b"/><path d="m81.239 81.782h34.478v36.06h-34.478z" fill="#fd9e27"/><path d="m23.537 108.915 2.705-.328a2.56 2.56 0 0 0 .7 1.582 1.969 1.969 0 0 0 2.829-.109 2.548 2.548 0 0 0 .592-1.771 2.372 2.372 0 0 0 -.567-1.67 1.807 1.807 0 0 0 -1.386-.619 4.884 4.884 0 0 0 -1.283.209l.309-2.277a2.449 2.449 0 0 0 1.73-.492 1.753 1.753 0 0 0 .6-1.387 1.507 1.507 0 0 0 -1.6-1.611 1.683 1.683 0 0 0 -1.223.5 2.334 2.334 0 0 0 -.617 1.452l-2.576-.437a5.762 5.762 0 0 1 .811-2.113 3.662 3.662 0 0 1 1.507-1.244 5.085 5.085 0 0 1 2.173-.452 4.334 4.334 0 0 1 3.3 1.313 3.323 3.323 0 0 1 -1.074 5.489 3.4 3.4 0 0 1 2 1.2 3.491 3.491 0 0 1 .751 2.257 4.377 4.377 0 0 1 -1.4 3.271 4.828 4.828 0 0 1 -3.49 1.353 4.8 4.8 0 0 1 -3.282-1.139 4.472 4.472 0 0 1 -1.509-2.977z" fill="#fff"/><path d="m66.327 94.918h-2.794v-10.531a9.635 9.635 0 0 1 -3.61 2.118v-2.536a8.091 8.091 0 0 0 2.377-1.357 5.163 5.163 0 0 0 1.76-2.332h2.267z" fill="#fff"/><path d="m103.376 104.536v2.6h-9.8a6.74 6.74 0 0 1 .955-2.79 18.556 18.556 0 0 1 3.143-3.5 19.763 19.763 0 0 0 2.317-2.387 3.075 3.075 0 0 0 .577-1.71 1.944 1.944 0 0 0 -.5-1.437 2.134 2.134 0 0 0 -2.78.024 2.709 2.709 0 0 0 -.6 1.75l-2.784-.278a4.564 4.564 0 0 1 1.566-3.308 5.242 5.242 0 0 1 3.282-1 4.743 4.743 0 0 1 3.391 1.164 3.815 3.815 0 0 1 1.233 2.894 5.047 5.047 0 0 1 -.353 1.875 7.63 7.63 0 0 1 -1.119 1.865 17.822 17.822 0 0 1 -1.83 1.859q-1.323 1.214-1.676 1.611a4.849 4.849 0 0 0 -.572.775z" fill="#fff"/><path d="m64 34.874a10.926 10.926 0 0 0 10.926-10.926v-13.948h-10.926z" fill="#fd9e27"/><path d="m64 43.484h6.668v5.052h-6.668z" fill="#c7e2e7"/><path d="m64 48.536v4.264h10.926a4.26 4.26 0 0 0 -4.26-4.26z" fill="#fd9e27"/><path d="m64 52.796h19.522v10.27h-19.522z" fill="#c7e2e7"/><g fill="#2d2d2d"><path d="m61.75 64.817h.75a1.75 1.75 0 0 0 0-3.5h-.75a1.75 1.75 0 0 0 0 3.5z"/><path d="m118 69.762h-29.333a1.75 1.75 0 0 0 0 3.5h27.583v6.771h-33.261v-15.216h.533a1.75 1.75 0 0 0 1.75-1.75v-10.267a1.75 1.75 0 0 0 -1.75-1.75h-7.108a6.019 6.019 0 0 0 -5.748-4.26h-11.584v-1.556h11.586a1.75 1.75 0 0 0 0-3.5h-4.918v-5.246a12.689 12.689 0 0 0 9.578-6.888 15.651 15.651 0 0 0 5.272-4.926 15.95 15.95 0 0 0 2.2-11.16 2.877 2.877 0 0 0 -2.8-2.267h-3.324v-1.247a1.75 1.75 0 0 0 -1.75-1.75h-15a1.75 1.75 0 0 0 0 3.5h13.25v12.2a9.176 9.176 0 1 1 -18.352 0v-13.95a1.75 1.75 0 0 0 -3.5 0v1.247h-3.324a2.877 2.877 0 0 0 -2.8 2.265 15.954 15.954 0 0 0 2.2 11.162 15.651 15.651 0 0 0 5.272 4.926 12.689 12.689 0 0 0 9.578 6.886v5.246h-4.918a1.75 1.75 0 0 0 -1.75 1.75v3.565a6.033 6.033 0 0 0 -4 4h-7.104a1.75 1.75 0 0 0 -1.75 1.75v10.27a1.75 1.75 0 0 0 1.75 1.75h.533v15.215h-35.011a1.75 1.75 0 0 0 -1.75 1.75v10.271a1.75 1.75 0 0 0 1.75 1.747h.533v24.04a1.75 1.75 0 0 0 1.75 1.75h5.967a1.75 1.75 0 1 0 0-3.5h-4.217v-22.29h25.3a1.75 1.75 0 0 0 0-3.5h-27.583v-6.768h33.261v32.561h-12.511a1.75 1.75 0 0 0 0 3.5h83.217a1.75 1.75 0 0 0 1.75-1.75v-34.311h.533a1.75 1.75 0 0 0 1.75-1.75v-10.27a1.75 1.75 0 0 0 -1.75-1.75zm-38.545-55.015a12.426 12.426 0 0 1 -1.788 8.021 11.19 11.19 0 0 1 -1 1.3c0-.039.006-.078.006-.117v-9.2zm-29.122 8.021a12.424 12.424 0 0 1 -1.787-8.021h2.778v9.2c0 .04.006.078.006.117a11.19 11.19 0 0 1 -.997-1.296zm7 27.519h13.333a2.5 2.5 0 0 1 1.793.76h-16.918a2.5 2.5 0 0 1 1.793-.76zm56.633 65.806h-30.977v-12.145a1.75 1.75 0 0 0 -3.5 0v12.145h-30.978v-51.276h5.5a1.75 1.75 0 0 0 0-3.5h-7.783v-6.771h35.544v6.771h-12.522a1.75 1.75 0 0 0 0 3.5h10.239v24.85a1.75 1.75 0 1 0 3.5 0v-6.135h30.978z"/><path d="m81.239 94.917a1.75 1.75 0 0 0 -1.75 1.75v.708a1.75 1.75 0 1 0 3.5 0v-.708a1.75 1.75 0 0 0 -1.75-1.75z"/><path d="m25.75 116.093h-.75a1.75 1.75 0 0 0 0 3.5h.75a1.75 1.75 0 0 0 0-3.5z"/><path d="m33.224 108.409a3.491 3.491 0 0 0 -.751-2.257 3.4 3.4 0 0 0 -2-1.2 3.323 3.323 0 0 0 1.074-5.489 4.334 4.334 0 0 0 -3.3-1.312 5.085 5.085 0 0 0 -2.173.452 3.662 3.662 0 0 0 -1.511 1.243 5.762 5.762 0 0 0 -.811 2.113l2.576.438a2.334 2.334 0 0 1 .617-1.452 1.683 1.683 0 0 1 1.223-.5 1.507 1.507 0 0 1 1.6 1.611 1.753 1.753 0 0 1 -.6 1.387 2.449 2.449 0 0 1 -1.73.492l-.309 2.277a4.884 4.884 0 0 1 1.282-.212 1.807 1.807 0 0 1 1.382.617 2.372 2.372 0 0 1 .567 1.67 2.548 2.548 0 0 1 -.592 1.771 1.969 1.969 0 0 1 -2.829.109 2.56 2.56 0 0 1 -.7-1.582l-2.705.328a4.472 4.472 0 0 0 1.512 2.979 4.8 4.8 0 0 0 3.282 1.139 4.828 4.828 0 0 0 3.49-1.353 4.377 4.377 0 0 0 1.406-3.269z"/><path d="m62.3 82.612a8.091 8.091 0 0 1 -2.377 1.357v2.531a9.635 9.635 0 0 0 3.61-2.118v10.536h2.794v-14.638h-2.267a5.163 5.163 0 0 1 -1.76 2.332z"/><path d="m97.289 95.337a2.134 2.134 0 0 1 2.78-.024 1.944 1.944 0 0 1 .5 1.437 3.075 3.075 0 0 1 -.577 1.71 19.763 19.763 0 0 1 -2.317 2.387 18.556 18.556 0 0 0 -3.143 3.5 6.74 6.74 0 0 0 -.955 2.79h9.8v-2.6h-5.55a4.849 4.849 0 0 1 .572-.775q.353-.4 1.676-1.611a17.822 17.822 0 0 0 1.83-1.859 7.63 7.63 0 0 0 1.119-1.865 5.047 5.047 0 0 0 .353-1.875 3.815 3.815 0 0 0 -1.233-2.894 4.743 4.743 0 0 0 -3.391-1.164 5.242 5.242 0 0 0 -3.282 1 4.564 4.564 0 0 0 -1.561 3.312l2.784.278a2.709 2.709 0 0 1 .595-1.747z"/></g></svg>