<?xml version="1.0" encoding="iso-8859-1"?>
<!-- Generator: Adobe Illustrator 19.0.0, SVG Export Plug-In . SVG Version: 6.00 Build 0)  -->
<svg version="1.1" id="Capa_1" xmlns="http://www.w3.org/2000/svg" xmlns:xlink="http://www.w3.org/1999/xlink" x="0px" y="0px"
	 viewBox="0 0 384 384" style="enable-background:new 0 0 384 384;" xml:space="preserve">

<g>
	<path style="fill:#f5f5f5;" d="M158.296,248.696c-8.808,0.72-15.36,8.448-14.64,17.256l3.2,39.04
		c0.68,8.36,7.68,14.688,15.928,14.688c0.44,0,0.88-0.016,1.328-0.056c8.808-0.72,15.36-8.448,14.64-17.256l-3.2-39.04
		C174.824,254.528,167.04,247.944,158.296,248.696z"/>
	<path style="fill:#f5f5f5;" d="M65.256,88l20.552,251.616C87.712,364.504,108.736,384,133.68,384h116.64
		c24.936,0,45.968-19.496,47.864-44.304L318.744,88H344c8.832,0,16-7.168,16-16s-7.168-16-16-16h-88.552
		C251.488,24.48,224.576,0,192,0s-59.488,24.48-63.448,56H40c-8.832,0-16,7.168-16,16s7.168,16,16,16H65.256z M266.288,337.176
		C265.648,345.488,258.64,352,250.32,352H133.68c-8.32,0-15.328-6.504-15.976-14.904L97.36,88h31.888l10.488,129.296
		c0.672,8.368,7.672,14.704,15.928,14.704c0.432,0,0.872-0.016,1.312-0.048c8.808-0.712,15.368-8.432,14.656-17.24L161.352,88H240
		h46.64L266.288,337.176z M192,32c14.88,0,27.432,10.216,30.984,24h-61.976C164.576,42.216,177.12,32,192,32z"/>
</g>
<g>
</g>
<g>
</g>
<g>
</g>
<g>
</g>
<g>
</g>
<g>
</g>
<g>
</g>
<g>
</g>
<g>
</g>
<g>
</g>
<g>
</g>
<g>
</g>
<g>
</g>
<g>
</g>
<g>
</g>
</svg>
