<?xml version="1.0" encoding="iso-8859-1"?>
<!-- Generator: Adobe Illustrator 19.0.0, SVG Export Plug-In . SVG Version: 6.00 Build 0)  -->
<svg version="1.1" id="Capa_1" xmlns="http://www.w3.org/2000/svg" xmlns:xlink="http://www.w3.org/1999/xlink" x="0px" y="0px"
	 viewBox="0 0 511.996 511.996" style="enable-background:new 0 0 511.996 511.996;" xml:space="preserve">
<path style="fill:#fc6262;" d="M270.73,14.696c-88.9,0.2-170.53,49.154-212.575,127.485l-9.999-23.197
	c-5.219-12.788-19.808-18.918-32.596-13.698s-18.918,19.808-13.698,32.596l0,0l32.496,79.991
	c5.399,12.709,20.078,18.628,32.776,13.238c0.11-0.04,0.21-0.09,0.32-0.14l79.991-32.496c12.788-5.219,18.918-19.808,13.698-32.596
	c-5.219-12.789-19.808-18.918-32.596-13.698l-23.997,9.999c52.194-91.779,168.91-123.865,260.689-71.672
	s123.866,168.91,71.672,260.689s-168.91,123.865-260.689,71.672c-46.075-26.197-79.201-70.352-91.469-121.906
	c-2.94-13.488-16.258-22.037-29.747-19.098s-22.037,16.258-19.098,29.747c0.08,0.35,0.16,0.7,0.25,1.04
	C67.474,442.186,197.849,521.797,327.364,490.49s209.135-161.691,177.819-291.206C479.016,91.007,382.127,14.726,270.73,14.696z"/>
<g>
</g>
<g>
</g>
<g>
</g>
<g>
</g>
<g>
</g>
<g>
</g>
<g>
</g>
<g>
</g>
<g>
</g>
<g>
</g>
<g>
</g>
<g>
</g>
<g>
</g>
<g>
</g>
<g>
</g>
</svg>
