<?xml version="1.0" encoding="iso-8859-1"?>
<!-- Generator: Adobe Illustrator 19.0.0, SVG Export Plug-In . SVG Version: 6.00 Build 0)  -->
<svg version="1.1" id="Capa_1" xmlns="http://www.w3.org/2000/svg" xmlns:xlink="http://www.w3.org/1999/xlink" x="0px" y="0px"
	 viewBox="0 0 512.002 512.002" style="enable-background:new 0 0 512.002 512.002;" xml:space="preserve">
<path style="fill:#f5f5f5;" d="M241.333,432.144c-8.363,0.01-16.558-2.344-23.641-6.797l-96.73-60.973H44.326
	C19.848,364.374,0,344.525,0,320.047V191.993c0-24.478,19.848-44.326,44.326-44.326h76.635l96.73-60.973
	c20.705-13.052,48.079-6.856,61.141,13.859c4.472,7.092,6.836,15.298,6.826,23.67v263.595
	C285.659,412.295,265.811,432.144,241.333,432.144z M49.252,315.122h78.803c4.63-0.01,9.171,1.29,13.101,3.743l95.253,59.988
	V133.186l-95.253,59.988c-3.93,2.453-8.471,3.753-13.101,3.743H49.252V315.122z"/>
<g>
	<path style="fill:#f5f5f5;" d="M355.991,349.598c-13.603,0.03-24.646-10.983-24.675-24.577c-0.01-6.462,2.512-12.668,7.043-17.287
		c28.566-29.137,28.093-75.916-1.044-104.473c-0.01-0.01-0.03-0.03-0.039-0.039c-9.85-9.378-10.225-24.971-0.847-34.821
		c9.378-9.85,24.971-10.225,34.821-0.847c0.167,0.158,0.335,0.325,0.502,0.493c48.582,47.587,49.389,125.542,1.803,174.124
		c-0.01,0.01-0.02,0.02-0.03,0.03C368.914,346.929,362.59,349.598,355.991,349.598z"/>
	<path style="fill:#f5f5f5;" d="M431.346,418.55c-13.603,0.03-24.645-10.983-24.675-24.577c-0.01-6.462,2.522-12.668,7.043-17.287
		c66.293-67.573,65.249-176.094-2.325-242.377c-0.01-0.01-0.03-0.03-0.039-0.039c-9.85-9.378-10.225-24.971-0.847-34.821
		s24.971-10.225,34.821-0.847c0.167,0.158,0.335,0.325,0.502,0.493c87.018,85.314,88.397,225.011,3.083,312.029
		c-0.01,0.01-0.02,0.02-0.03,0.03C444.269,415.881,437.945,418.55,431.346,418.55z"/>
</g>
<g>
</g>
<g>
</g>
<g>
</g>
<g>
</g>
<g>
</g>
<g>
</g>
<g>
</g>
<g>
</g>
<g>
</g>
<g>
</g>
<g>
</g>
<g>
</g>
<g>
</g>
<g>
</g>
<g>
</g>
</svg>
