<?xml version="1.0" encoding="iso-8859-1"?>
<!-- Generator: Adobe Illustrator 19.0.0, SVG Export Plug-In . SVG Version: 6.00 Build 0)  -->
<svg version="1.1" id="Capa_1" xmlns="http://www.w3.org/2000/svg" xmlns:xlink="http://www.w3.org/1999/xlink" x="0px" y="0px"
	 viewBox="0 0 512.008 512.008" style="enable-background:new 0 0 512.008 512.008;" xml:space="preserve">
<path style="fill:#fc6262;" d="M255.841,512.008c-116.059-0.09-210.07-94.242-209.979-210.301
	c0.03-34.384,8.488-68.225,24.64-98.571c6.941-12.014,22.3-16.122,34.303-9.181c11.431,6.6,15.801,20.934,9.995,32.787
	c-41.476,77.969-11.893,174.812,66.076,216.287s174.812,11.893,216.287-66.076c24.982-46.95,24.982-103.252,0-150.212
	c-6.941-12.014-2.823-27.372,9.181-34.303c12.014-6.941,27.372-2.823,34.303,9.181c0.291,0.502,0.552,1.005,0.814,1.517
	c54.534,102.448,15.69,229.707-86.758,284.241C324.277,503.57,290.315,512.038,255.841,512.008z"/>
<path style="fill:#ffd86f;" d="M359.906,97.252L274.524,7.451c-10.085-9.934-26.278-9.934-36.363,0L152.78,97.252
	c-9.573,10.045-9.191,25.936,0.854,35.509s25.936,9.191,35.509-0.854l42.088-44.298v197.684c0,13.872,11.24,25.112,25.112,25.112
	c13.872,0,25.112-11.24,25.112-25.112V87.609l42.088,44.198c9.573,10.045,25.464,10.427,35.509,0.854
	c10.045-9.573,10.427-25.464,0.854-35.509l0,0V97.252z"/>
<g>
</g>
<g>
</g>
<g>
</g>
<g>
</g>
<g>
</g>
<g>
</g>
<g>
</g>
<g>
</g>
<g>
</g>
<g>
</g>
<g>
</g>
<g>
</g>
<g>
</g>
<g>
</g>
<g>
</g>
</svg>
