<?xml version="1.0" encoding="iso-8859-1"?>
<!-- Generator: Adobe Illustrator 19.0.0, SVG Export Plug-In . SVG Version: 6.00 Build 0)  -->
<svg version="1.1" id="Capa_1" xmlns="http://www.w3.org/2000/svg" xmlns:xlink="http://www.w3.org/1999/xlink" x="0px" y="0px"
	 viewBox="0 0 512 512" style="enable-background:new 0 0 512 512;" xml:space="preserve">
<path style="fill:#ffd86f;" d="M239.852,396.308c-5.76,0.01-11.333-2.018-15.754-5.711l-48.345-40.271
	c-10.939-8.074-13.263-23.483-5.199-34.422c8.074-10.939,23.483-13.263,34.422-5.199c0.798,0.591,1.556,1.221,2.284,1.91l30.72,25.6
	l68.923-72.074c9.403-9.817,24.99-10.142,34.806-0.738c9.817,9.403,10.142,24.99,0.738,34.806l-85.071,88.615
	C252.78,393.58,246.469,396.278,239.852,396.308z"/>
<path style="fill:#fc6262;" d="M428.308,46.769h-34.462V27.077c0-13.598-11.018-24.615-24.615-24.615
	c-13.598,0-24.615,11.018-24.615,24.615v19.692H167.385V27.077c0-13.598-11.018-24.615-24.615-24.615
	c-13.598,0-24.615,11.018-24.615,24.615v19.692H83.692C37.494,46.828,0.059,84.263,0,130.462v295.385
	c0.059,46.198,37.494,83.633,83.692,83.692h344.615c46.198-0.059,83.633-37.494,83.692-83.692V130.462
	C511.941,84.263,474.506,46.828,428.308,46.769z M83.692,96h344.615c19.033,0,34.462,15.429,34.462,34.462l0,0v24.615H49.231
	v-24.615C49.231,111.429,64.66,96,83.692,96z M428.308,460.308H83.692c-19.033,0-34.462-15.429-34.462-34.462V204.308h413.538
	v221.538C462.769,444.879,447.34,460.308,428.308,460.308z"/>
<g>
</g>
<g>
</g>
<g>
</g>
<g>
</g>
<g>
</g>
<g>
</g>
<g>
</g>
<g>
</g>
<g>
</g>
<g>
</g>
<g>
</g>
<g>
</g>
<g>
</g>
<g>
</g>
<g>
</g>
</svg>
