<?xml version="1.0" encoding="iso-8859-1"?>
<!-- Generator: Adobe Illustrator 19.1.0, SVG Export Plug-In . SVG Version: 6.00 Build 0)  -->
<svg version="1.1" id="Capa_1" xmlns="http://www.w3.org/2000/svg" xmlns:xlink="http://www.w3.org/1999/xlink" x="0px" y="0px"
	 viewBox="0 0 64.985 64.985" style="enable-background:new 0 0 64.985 64.985;" xml:space="preserve">
<g>
	<g id="group-5svg">
		<path id="path-1_15_" style="fill:#E56A77;" d="M61.993,58.373c0,3.802-2.069,6.612-5.873,6.612H18.385
			c-5.311,0-10.393-4.031-10.393-9.341V14.622c0-5.309,5.082-9.623,10.393-9.623h4.587c5.254,0,9.02,4.41,9.02,9.662v-0.664h24.127
			c3.804,0,5.873,3.562,5.873,7.365V58.373z"/>
		<path id="path-2_15_" style="fill:#53ECF4;" d="M60.993,56.987c0,4.417-3.582,7.998-8,7.998h-27c-4.418,0-8-3.581-8-7.998V32.992
			c0-4.417,3.582-7.998,8-7.998h27c4.418,0,8,3.581,8,7.998V56.987z"/>
		<path id="path-3_13_" style="fill:#8B71B5;" d="M35.396,53.508l-5.985,1.07l1.07-5.983l14.722-14.719
			c1.358-1.357,3.558-1.357,4.915,0l0,0c1.358,1.357,1.358,3.557,0,4.914L35.396,53.508z"/>
		<path id="path-4_12_" d="M50.493,62.985h-27c-5.238,0-9.5-4.26-9.5-9.498V29.493c0-5.237,4.262-9.497,9.5-9.497h27
			c5.238,0,9.5,4.26,9.5,9.497v23.994C59.993,58.725,55.73,62.985,50.493,62.985z M23.493,22.995c-3.584,0-6.5,2.915-6.5,6.498
			v23.994c0,3.584,2.916,6.499,6.5,6.499h27c3.584,0,6.5-2.915,6.5-6.499V29.493c0-3.583-2.916-6.498-6.5-6.498H23.493z"/>
		<path id="path-5_9_" d="M49.738,62.985H14.385c-6.282,0-11.393-4.868-11.393-10.851V11.623C2.993,5.322,8.296,0,14.572,0h4.401
			c5.012,0,9.498,3.972,10.703,8.998h22.444c4.341,0,7.873,3.773,7.873,8.41v35.373C59.993,58.599,55.584,62.985,49.738,62.985z
			 M14.572,3c-4.57,0-8.579,4.029-8.579,8.623v40.511c0,4.329,3.765,7.852,8.393,7.852h35.353c4.135,0,7.254-3.098,7.254-7.205
			V17.408c0-2.983-2.186-5.411-4.873-5.411H29.955c-0.152,0.667-0.749,1.164-1.462,1.164c-0.829,0-1.5-0.671-1.5-1.499
			c0-4.615-3.748-8.662-8.02-8.662H14.572z"/>
		<path id="path-6_8_" d="M26.412,55.078c-0.394,0-0.776-0.155-1.06-0.439c-0.347-0.347-0.503-0.842-0.416-1.324l1.07-5.983
			c0.053-0.302,0.199-0.58,0.416-0.797l14.722-14.719c0.94-0.939,2.189-1.457,3.518-1.457c1.329,0,2.578,0.518,3.518,1.457
			s1.457,2.189,1.457,3.518c0,1.327-0.517,2.577-1.457,3.516L33.457,53.57c-0.217,0.216-0.494,0.362-0.797,0.415l-5.984,1.069
			C26.587,55.07,26.5,55.078,26.412,55.078z M28.875,48.323l-0.608,3.4l3.401-0.607l14.39-14.386
			c0.373-0.373,0.579-0.869,0.579-1.396c0-0.529-0.206-1.025-0.579-1.397c-0.747-0.746-2.047-0.746-2.794,0L28.875,48.323z"/>
	</g>
</g>
<g>
</g>
<g>
</g>
<g>
</g>
<g>
</g>
<g>
</g>
<g>
</g>
<g>
</g>
<g>
</g>
<g>
</g>
<g>
</g>
<g>
</g>
<g>
</g>
<g>
</g>
<g>
</g>
<g>
</g>
</svg>
