<?xml version="1.0" encoding="iso-8859-1"?>
<!-- Generator: Adobe Illustrator 19.1.0, SVG Export Plug-In . SVG Version: 6.00 Build 0)  -->
<svg version="1.1" id="Capa_1" xmlns="http://www.w3.org/2000/svg" xmlns:xlink="http://www.w3.org/1999/xlink" x="0px" y="0px"
	 viewBox="0 0 65 65" style="enable-background:new 0 0 65 65;" xml:space="preserve">
<g>
	<g id="group-11svg">
		<path id="path-1_1_" style="fill:#8B71B5;" d="M65,56.994c0,4.417-3.582,7.998-8,7.998H14c-4.418,0-8-3.581-8-7.998v-43.99
			c0-4.417,3.582-7.998,8-7.998h43c4.418,0,8,3.581,8,7.998V56.994z"/>
		<path id="path-2_1_" d="M52.5,62.993h-43c-5.238,0-9.5-4.26-9.5-9.498V9.505c0-5.237,4.262-9.498,9.5-9.498h43
			c5.238,0,9.5,4.261,9.5,9.498v43.989C62,58.732,57.738,62.993,52.5,62.993z M9.5,3.007C5.916,3.007,3,5.922,3,9.505v43.989
			c0,3.584,2.916,6.499,6.5,6.499h43c3.584,0,6.5-2.915,6.5-6.499V9.505c0-3.583-2.916-6.498-6.5-6.498H9.5z"/>
		<path id="path-3_1_" style="fill:#53ECF4;" d="M27.075,37.87c0-5.9,4.784-10.683,10.686-10.683
			c5.901,0,10.684,4.783,10.684,10.683l-2.204,0.027c-1.337-3.372-4.628-5.756-8.476-5.756c-3.808,0-7.07,2.333-8.434,5.647
			L27.075,37.87z"/>
		<path id="path-4_1_" style="fill:#FF917B;" d="M43.234,19.938c0,2.701-2.753,6.909-5.453,6.909c-2.701,0-5.495-4.208-5.495-6.909
			c0-2.7,2.774-4.889,5.475-4.889C40.461,15.049,43.234,17.238,43.234,19.938z"/>
		<path id="path-5_1_" d="M32.781,25.347c-3.794,0-6.995-5.165-6.995-8.408c0-3.404,3.259-6.389,6.975-6.389
			s6.974,2.985,6.974,6.389C39.735,20.182,36.553,25.347,32.781,25.347z M32.761,13.549c-2.006,0-3.975,1.679-3.975,3.39
			c0,2.173,2.39,5.409,3.995,5.409c1.589,0,3.954-3.236,3.954-5.409C36.735,15.228,34.767,13.549,32.761,13.549z"/>
		<path id="path-6_1_" d="M41.241,36c-0.614,0-1.168-0.176-1.394-0.748c-1.159-2.921-3.939-4.709-7.082-4.709
			c-3.101,0-5.868,1.902-7.047,4.767c-0.224,0.545-0.745,0.932-1.333,0.954l-2.256,0.094c-0.402,0.015-0.803-0.132-1.095-0.414
			c-0.294-0.283-0.459-0.669-0.459-1.076c0-6.717,5.467-12.18,12.186-12.18c6.718,0,12.184,5.465,12.184,12.182
			c0,0.821-0.66,1.29-1.481,1.301L41.26,36C41.254,36,41.247,36,41.241,36z M32.761,25.688c-4.202,0-7.754,2.835-8.843,6.692
			c1.941-2.931,5.23-4.738,8.847-4.738c3.618,0,6.89,1.794,8.83,4.711C40.497,28.509,36.952,25.688,32.761,25.688z"/>
		<path id="path-7" d="M43,45.996H22c-0.828,0-1.5-0.671-1.5-1.499c0-0.828,0.672-1.5,1.5-1.5h21c0.828,0,1.5,0.672,1.5,1.5
			C44.5,45.326,43.828,45.996,43,45.996z"/>
		<path id="path-8" d="M43,52.995H22c-0.828,0-1.5-0.672-1.5-1.5s0.672-1.5,1.5-1.5h21c0.828,0,1.5,0.672,1.5,1.5
			S43.828,52.995,43,52.995z"/>
	</g>
</g>
<g>
</g>
<g>
</g>
<g>
</g>
<g>
</g>
<g>
</g>
<g>
</g>
<g>
</g>
<g>
</g>
<g>
</g>
<g>
</g>
<g>
</g>
<g>
</g>
<g>
</g>
<g>
</g>
<g>
</g>
</svg>
