<?xml version="1.0" encoding="iso-8859-1"?>
<!-- Generator: Adobe Illustrator 19.1.0, SVG Export Plug-In . SVG Version: 6.00 Build 0)  -->
<svg version="1.1" id="Capa_1" xmlns="http://www.w3.org/2000/svg" xmlns:xlink="http://www.w3.org/1999/xlink" x="0px" y="0px"
	 viewBox="0 0 66.66 66.66" style="enable-background:new 0 0 66.66 66.66;" xml:space="preserve">
<g>
	<g id="group-2svg">
		<path id="path-1_10_" style="fill:#8B71B5;" d="M63.493,31.092l-3.638-1.293c-0.111-0.039-0.215-0.088-0.321-0.134
			c-0.568-2.146-1.427-4.172-2.534-6.036c0.046-0.121,0.092-0.242,0.149-0.361l1.658-3.487c1.924-4.048-2.299-8.269-6.348-6.346
			l-3.487,1.658c-0.121,0.057-0.245,0.105-0.368,0.151c-1.862-1.101-3.884-1.958-6.026-2.523c-0.048-0.109-0.098-0.219-0.139-0.334
			L41.145,8.75c-1.502-4.222-7.474-4.222-8.976,0l-1.294,3.637c-0.028,0.081-0.064,0.155-0.097,0.233
			c-2.233,0.548-4.342,1.41-6.279,2.537c-0.052-0.023-0.105-0.04-0.157-0.064l-3.487-1.658c-4.048-1.923-8.931,2.298-7.007,6.346
			l0.999,3.487c0,0.001,0,0.001,0,0.002c-1,2.009-1.534,4.214-2.137,6.561l-3.219,1.261c-4.223,1.502-4.058,7.473,0.165,8.974
			l3.532,1.227c0.579,2.439,1.567,4.736,2.83,6.821l-1.531,3.264c-1.924,4.047,2.309,8.27,6.357,6.346l3.263-1.549
			c2.089,1.268,4.393,2.218,6.837,2.798l1.224,3.436c1.501,4.222,7.475,4.222,8.977,0l1.254-3.527
			c2.359-0.603,4.576-1.559,6.594-2.805l3.466,1.647c4.049,1.924,8.272-2.299,6.348-6.346l-1.659-3.486
			c-0.02-0.044-0.034-0.088-0.053-0.132c1.134-1.946,2.001-4.066,2.549-6.312c0.07-0.029,0.138-0.062,0.211-0.088l3.638-1.294
			C67.716,38.565,67.716,32.594,63.493,31.092z"/>
		<path id="path-2_10_" style="fill:#53ECF4;" d="M54.515,36.025c0,9.896-8.025,17.919-17.924,17.919s-17.923-8.023-17.923-17.919
			c0-9.897,8.024-17.919,17.923-17.919S54.515,26.128,54.515,36.025z"/>
		<path id="path-3_10_" style="fill:#FF917B;" d="M47.679,36.025c0,6.121-4.965,11.085-11.088,11.085s-11.087-4.964-11.087-11.085
			c0-6.122,4.964-11.085,11.087-11.085S47.679,29.903,47.679,36.025z"/>
		<path id="path-4_10_" d="M31.657,64.076c-2.686,0-5.002-1.635-5.902-4.163L24.8,57.23c-2.02-0.548-3.953-1.34-5.763-2.359
			l-2.545,1.208c-0.872,0.415-1.784,0.624-2.712,0.624c-2.113,0-4.144-1.137-5.301-2.967c-1.158-1.831-1.281-4.018-0.339-6
			l1.2-2.545c-1.036-1.837-1.832-3.763-2.375-5.748l-2.742-0.96C1.655,37.569,0,35.227,0,32.512c0-2.654,1.614-4.943,4.114-5.832
			L6.71,25.7c0.552-1.994,1.227-3.844,2.013-5.517l-1.013-2.83c-0.868-1.885-0.725-3.976,0.396-5.75
			c1.227-1.941,3.391-3.146,5.648-3.146c0.949,0,1.872,0.21,2.745,0.625l2.933,1.393c1.658-0.896,3.404-1.602,5.21-2.107l1.114-3.12
			c0.899-2.53,3.216-4.164,5.901-4.164s5.002,1.634,5.902,4.165l1.15,3.233c1.725,0.512,3.395,1.212,4.98,2.085l3.126-1.485
			c0.873-0.415,1.786-0.625,2.713-0.625c2.111,0,4.139,1.136,5.295,2.964c1.158,1.833,1.282,4.021,0.338,6.004l-1.482,3.118
			c0.877,1.587,1.579,3.26,2.095,4.991l3.222,1.146c2.53,0.9,4.165,3.215,4.165,5.9c0,2.685-1.635,5.001-4.165,5.9l-3.098,1.101
			c-0.506,1.821-1.217,3.58-2.12,5.245l1.384,2.91c0.943,1.983,0.819,4.171-0.339,6.003c-1.156,1.829-3.184,2.964-5.295,2.964
			h-0.001c-0.927,0-1.839-0.209-2.712-0.624l-2.743-1.304c-1.748,1.003-3.599,1.79-5.522,2.348l-0.992,2.79
			C36.658,62.441,34.342,64.076,31.657,64.076z M19.109,51.676c0.271,0,0.54,0.074,0.779,0.218c1.976,1.2,4.131,2.082,6.404,2.621
			c0.495,0.118,0.896,0.477,1.066,0.956l1.224,3.436c0.568,1.599,1.961,2.169,3.075,2.169c1.113,0,2.506-0.57,3.074-2.169
			l1.255-3.527c0.167-0.471,0.558-0.827,1.042-0.95c2.172-0.555,4.25-1.44,6.177-2.629c0.434-0.266,0.973-0.296,1.432-0.078
			l3.467,1.647c1.528,0.727,3.305,0.157,4.183-1.233c0.351-0.554,0.839-1.697,0.165-3.114l-1.658-3.488
			c-0.015-0.032-0.06-0.137-0.073-0.171c-0.166-0.425-0.153-0.963,0.078-1.358c1.078-1.85,1.882-3.84,2.388-5.913
			c0.115-0.471,0.45-0.857,0.9-1.037c0.113-0.049,0.184-0.079,0.257-0.106l3.647-1.295c1.599-0.569,2.17-1.962,2.17-3.075
			c0-1.113-0.571-2.505-2.17-3.074l-3.638-1.294c-0.134-0.047-0.265-0.103-0.395-0.161c-0.415-0.185-0.758-0.563-0.874-1.002
			c-0.524-1.981-1.323-3.883-2.374-5.653c-0.233-0.393-0.274-0.87-0.113-1.297c0.06-0.158,0.122-0.314,0.195-0.471l1.66-3.49
			c0.674-1.418,0.186-2.56-0.165-3.114c-0.878-1.391-2.652-1.958-4.183-1.234l-3.488,1.657c-0.159,0.076-0.32,0.14-0.48,0.2
			c-0.427,0.163-0.903,0.12-1.297-0.111c-1.771-1.047-3.67-1.843-5.644-2.365c-0.441-0.116-0.804-0.426-0.989-0.843
			c-0.074-0.167-0.131-0.3-0.18-0.437l-1.294-3.637c-0.569-1.601-1.961-2.171-3.075-2.171c-1.113,0-2.506,0.57-3.075,2.171
			l-1.294,3.637c-0.028,0.082-0.064,0.166-0.101,0.251c-0.187,0.429-0.598,0.824-1.052,0.936c-2.058,0.504-4.037,1.303-5.882,2.376
			c-0.41,0.238-0.91,0.271-1.347,0.081c-0.079-0.031-0.142-0.056-0.204-0.086l-3.491-1.659c-1.605-0.76-3.622-0.083-4.568,1.415
			c-0.338,0.534-0.811,1.626-0.19,2.933c0.021,0.045,0.041,0.091,0.057,0.138l1.249,3.486c0.058,0.162,0.088,0.334,0.088,0.506
			c0,0.231-0.054,0.464-0.157,0.671c-0.915,1.838-1.681,3.946-2.277,6.265c-0.121,0.473-0.466,0.857-0.923,1.03l-3.344,1.262
			C3.792,29.977,3,31.102,3,32.512c0,1.137,0.584,2.56,2.221,3.143l3.495,1.223c0.482,0.169,0.846,0.572,0.963,1.07
			c0.527,2.22,1.414,4.37,2.638,6.39c0.26,0.431,0.288,0.962,0.074,1.417l-1.539,3.264c-0.675,1.418-0.187,2.561,0.163,3.115
			c0.88,1.393,2.657,1.964,4.189,1.236l3.262-1.548C18.67,51.724,18.89,51.676,19.109,51.676z"/>
		<path id="path-5_8_" d="M31.591,45.609c-6.941,0-12.587-5.645-12.587-12.583c0-6.94,5.646-12.585,12.587-12.585
			s12.588,5.645,12.588,12.585C44.179,39.964,38.532,45.609,31.591,45.609z M31.591,23.44c-5.286,0-9.587,4.3-9.587,9.586
			c0,5.284,4.301,9.584,9.587,9.584c5.287,0,9.588-4.3,9.588-9.584C41.179,27.74,36.878,23.44,31.591,23.44z"/>
		<path id="path-6_7_" d="M31.591,52.444c-10.71,0-19.423-8.711-19.423-19.418c0-10.708,8.713-19.42,19.423-19.42
			s19.424,8.712,19.424,19.42C51.015,43.733,42.301,52.444,31.591,52.444z M31.591,16.606c-9.055,0-16.423,7.366-16.423,16.42
			c0,9.053,7.368,16.418,16.423,16.418c9.056,0,16.424-7.365,16.424-16.418C48.015,23.972,40.647,16.606,31.591,16.606z"/>
	</g>
</g>
<g>
</g>
<g>
</g>
<g>
</g>
<g>
</g>
<g>
</g>
<g>
</g>
<g>
</g>
<g>
</g>
<g>
</g>
<g>
</g>
<g>
</g>
<g>
</g>
<g>
</g>
<g>
</g>
<g>
</g>
</svg>
